<?xml version="1.0" encoding="UTF-8" standalone="no"?>
<!-- Created with Inkscape (http://www.inkscape.org/) -->

<svg
   xmlns:dc="http://purl.org/dc/elements/1.1/"
   xmlns:cc="http://creativecommons.org/ns#"
   xmlns:rdf="http://www.w3.org/1999/02/22-rdf-syntax-ns#"
   xmlns:svg="http://www.w3.org/2000/svg"
   xmlns="http://www.w3.org/2000/svg"
   xmlns:sodipodi="http://sodipodi.sourceforge.net/DTD/sodipodi-0.dtd"
   xmlns:inkscape="http://www.inkscape.org/namespaces/inkscape"
   width="400"
   height="177.849"
   viewBox="0 0 400 177.84901"
   version="1.1"
   id="svg8"
   sodipodi:docname="ferrara logo.svg"
   inkscape:version="0.92.2 5c3e80d, 2017-08-06"
   inkscape:export-filename="/Users/ray/Documents/YT/WIKIPEDIA misc topics/20200429 + Misc quickie files improved for Workshop etc./ferrara logo.png"
   inkscape:export-xdpi="101.05"
   inkscape:export-ydpi="101.05">
  <defs
     id="defs2" />
  <sodipodi:namedview
     id="base"
     pagecolor="#ffffff"
     bordercolor="#666666"
     borderopacity="1.0"
     inkscape:pageopacity="0.0"
     inkscape:pageshadow="2"
     inkscape:zoom="1.9250982"
     inkscape:cx="200"
     inkscape:cy="86"
     inkscape:document-units="px"
     inkscape:current-layer="layer1"
     showgrid="false"
     units="px"
     inkscape:window-width="1559"
     inkscape:window-height="855"
     inkscape:window-x="41"
     inkscape:window-y="1"
     inkscape:window-maximized="1" />
  <metadata
     id="metadata5">
    <rdf:RDF>
      <cc:Work
         rdf:about="">
        <dc:format>image/svg+xml</dc:format>
        <dc:type
           rdf:resource="http://purl.org/dc/dcmitype/StillImage" />
        <dc:title></dc:title>
      </cc:Work>
    </rdf:RDF>
  </metadata>
  <g
     inkscape:label="Layer 1"
     inkscape:groupmode="layer"
     id="layer1"
     transform="translate(0,-944.67065)">
    <g
       id="g1521"
       transform="matrix(2.4284465,0,0,2.4284514,683.22132,743.21186)">
      <path
         inkscape:connector-curvature="0"
         id="path890"
         style="fill:#000000;fill-opacity:1;fill-rule:nonzero;stroke:none;stroke-width:0.35277778"
         d="m -190.05793,103.4234 c 0,3.0353 -1.79317,4.51344 -4.79636,4.51344 -3.01943,0 -4.78085,-1.46262 -4.78085,-4.51344 v -6.981827 h 2.46945 v 6.981827 c 0,1.22661 0.31432,2.43734 2.3114,2.43734 1.76106,0 2.32727,-0.77047 2.32727,-2.43734 v -6.981827 h 2.46909 z" />
      <path
         inkscape:connector-curvature="0"
         id="path892"
         style="fill:#000000;fill-opacity:1;fill-rule:nonzero;stroke:none;stroke-width:0.35277778"
         d="m -188.01651,99.539314 h 2.12302 v 1.132066 h 0.0473 c 0.56586,-0.911932 1.54093,-1.352199 2.48426,-1.352199 2.37455,0 2.97215,1.336679 2.97215,3.349629 v 5.00062 h -2.23273 v -4.59211 c 0,-1.33632 -0.39299,-1.99707 -1.43122,-1.99707 -1.21073,0 -1.72967,0.67627 -1.72967,2.32763 v 4.26155 h -2.23308 z" />
      <path
         inkscape:connector-curvature="0"
         id="path894"
         style="fill:#000000;fill-opacity:1;fill-rule:nonzero;stroke:none;stroke-width:0.35277778"
         d="m -176.24058,98.281344 h -2.23308 v -1.839736 h 2.23308 z m -2.23308,1.258006 h 2.23308 v 8.13012 h -2.23308 z" />
      <path
         inkscape:connector-curvature="0"
         id="path896"
         style="fill:#000000;fill-opacity:1;fill-rule:nonzero;stroke:none;stroke-width:0.35277778"
         d="m -169.82626,107.66932 h -2.48462 l -2.78306,-8.130112 h 2.34244 l 1.7145,5.550962 h 0.031 l 1.7145,-5.550962 h 2.21721 z" />
      <path
         inkscape:connector-curvature="0"
         id="path898"
         style="fill:#000000;fill-opacity:1;fill-rule:nonzero;stroke:none;stroke-width:0.35277778"
         d="m -164.15141,104.14684 c 0.0632,1.41534 0.75494,2.05987 1.99743,2.05987 0.89641,0 1.6196,-0.55034 1.76106,-1.0534 h 1.96568 c -0.629,1.91841 -1.96568,2.73615 -3.80576,2.73615 -2.56329,0 -4.15149,-1.76142 -4.15149,-4.27743 0,-2.43734 1.6831,-4.292955 4.15149,-4.292955 2.76789,0 4.10456,2.327275 3.94758,4.827765 z m 3.63291,-1.41535 c -0.20426,-1.13206 -0.69215,-1.72966 -1.7773,-1.72966 -1.41499,0 -1.82386,1.10066 -1.85561,1.72966 z" />
      <path
         inkscape:connector-curvature="0"
         id="path900"
         style="fill:#000000;fill-opacity:1;fill-rule:nonzero;stroke:none;stroke-width:0.35277778"
         d="m -156.81,99.539314 h 2.12302 v 1.509536 h 0.031 c 0.40958,-1.022 1.50989,-1.729669 2.59468,-1.729669 0.15734,0 0.34643,0.0314 0.48789,0.07867 v 2.075739 c -0.20461,-0.0473 -0.53481,-0.0787 -0.80221,-0.0787 -1.63548,0 -2.20134,1.17933 -2.20134,2.6102 v 3.6643 H -156.81 Z" />
      <path
         inkscape:connector-curvature="0"
         id="path902"
         style="fill:#000000;fill-opacity:1;fill-rule:nonzero;stroke:none;stroke-width:0.35277778"
         d="m -148.65053,105.02751 c 0.0159,0.97508 0.83397,1.36808 1.71415,1.36808 0.64487,0 1.46226,-0.25154 1.46226,-1.03788 0,-0.67627 -0.92745,-0.91193 -2.53153,-1.258 -1.28976,-0.28328 -2.57881,-0.73907 -2.57881,-2.16994 0,-2.076095 1.79246,-2.610554 3.53801,-2.610554 1.77659,0 3.41277,0.597606 3.58528,2.594684 h -2.12302 c -0.0624,-0.86501 -0.72319,-1.10067 -1.52541,-1.10067 -0.50271,0 -1.24178,0.0942 -1.24178,0.75459 0,0.80187 1.25801,0.91229 2.53154,1.21109 1.30492,0.29845 2.5788,0.77046 2.5788,2.28 0,2.13854 -1.85561,2.83069 -3.71122,2.83069 -1.88665,0 -3.72639,-0.70803 -3.82129,-2.86209 z" />
      <path
         inkscape:connector-curvature="0"
         id="path904"
         style="fill:#000000;fill-opacity:1;fill-rule:nonzero;stroke:none;stroke-width:0.35277778"
         d="m -139.48431,98.281344 h -2.23308 v -1.839736 h 2.23308 z m -2.23308,1.258006 h 2.23308 v 8.13012 h -2.23308 z" />
      <path
         inkscape:connector-curvature="0"
         id="path906"
         style="fill:#000000;fill-opacity:1;fill-rule:nonzero;stroke:none;stroke-width:0.35277778"
         d="m -134.73641,99.539314 h 1.63548 v 1.494016 h -1.63548 v 4.02555 c 0,0.75494 0.18838,0.94368 0.94333,0.94368 0.23565,0 0.45579,-0.0159 0.69215,-0.0632 v 1.74554 c -0.37748,0.0628 -0.86537,0.0787 -1.30563,0.0787 -1.36808,0 -2.56293,-0.31468 -2.56293,-1.93428 v -4.79601 h -1.35291 v -1.494016 h 1.35291 v -2.437341 h 2.23308 z" />
      <path
         inkscape:connector-curvature="0"
         id="path908"
         style="fill:#000000;fill-opacity:1;fill-rule:nonzero;stroke:none;stroke-width:0.35277778"
         d="m -131.73459,102.03973 c 0.12524,-2.091617 1.99707,-2.72062 3.82129,-2.72062 1.6196,0 3.5694,0.36195 3.5694,2.31175 v 4.22981 c 0,0.73907 0.0787,1.47814 0.28328,1.80869 h -2.26448 c -0.0787,-0.25153 -0.14181,-0.51894 -0.15733,-0.78634 -0.70768,0.73907 -1.7452,1.00647 -2.7365,1.00647 -1.54094,0 -2.76719,-0.77046 -2.76719,-2.43734 0,-1.84009 1.38324,-2.28035 2.76719,-2.46909 1.36807,-0.20426 2.64195,-0.15699 2.64195,-1.06927 0,-0.9592 -0.66005,-1.10067 -1.44639,-1.10067 -0.84913,0 -1.39982,0.34608 -1.47814,1.22661 z m 0.97472,-5.740045 h 2.4691 l 1.50953,2.233084 h -1.55681 z m 4.18289,7.391045 c -0.37747,0.3302 -1.16381,0.34608 -1.85561,0.47167 -0.69215,0.14181 -1.32115,0.37747 -1.32115,1.19521 0,0.83361 0.64523,1.03787 1.36877,1.03787 1.74555,0 1.80799,-1.38395 1.80799,-1.87113 z" />
      <path
         inkscape:connector-curvature="0"
         id="path910"
         style="fill:#000000;fill-opacity:1;fill-rule:nonzero;stroke:none;stroke-width:0.35277778"
         d="m -194.02114,123.70882 h -0.031 c -0.51894,0.88054 -1.43122,1.25801 -2.46945,1.25801 -2.45286,0 -3.64807,-2.10714 -3.64807,-4.3561 0,-2.18616 1.21073,-4.21464 3.60115,-4.21464 0.95921,0 1.90253,0.40887 2.4063,1.21109 h 0.031 v -4.08869 h 2.23309 v 11.22785 h -2.12302 z m -1.9498,-5.62998 c -1.46227,0 -1.96568,1.25801 -1.96568,2.59468 0,1.27389 0.58173,2.61056 1.96568,2.61056 1.47814,0 1.91876,-1.2894 1.91876,-2.62643 0,-1.3208 -0.47202,-2.57881 -1.91876,-2.57881" />
      <path
         inkscape:connector-curvature="0"
         id="path912"
         style="fill:#000000;fill-opacity:1;fill-rule:nonzero;stroke:none;stroke-width:0.35277778"
         d="m -188.2208,121.22425 c 0.0631,1.41499 0.75494,2.05987 1.99743,2.05987 0.8964,0 1.6196,-0.55034 1.76106,-1.0541 h 1.96568 c -0.629,1.91875 -1.96568,2.73685 -3.80541,2.73685 -2.56364,0 -4.15185,-1.76142 -4.15185,-4.27743 0,-2.4377 1.68311,-4.29331 4.15185,-4.29331 2.76754,0 4.10421,2.32727 3.94723,4.82812 z m 3.6329,-1.4157 c -0.20426,-1.13206 -0.69215,-1.72967 -1.77729,-1.72967 -1.41499,0 -1.82386,1.10067 -1.85561,1.72967 z" />
      <path
         inkscape:connector-curvature="0"
         id="path914"
         style="fill:#000000;fill-opacity:1;fill-rule:nonzero;stroke:none;stroke-width:0.35277778"
         d="m -173.06413,124.22762 c 0,1.33667 -0.47166,3.60116 -4.21428,3.60116 -1.60408,0 -3.47486,-0.75495 -3.58528,-2.61056 h 2.21756 c 0.20426,0.83326 0.88018,1.11654 1.66652,1.11654 1.24248,0 1.80834,-0.84913 1.79317,-2.01295 v -1.06927 h -0.0317 c -0.48789,0.84914 -1.46226,1.25765 -2.43769,1.25765 -2.43735,0 -3.47487,-1.85561 -3.47487,-4.08798 0,-2.1075 1.21074,-4.02626 3.49109,-4.02626 1.06927,0 1.88666,0.36195 2.42147,1.30528 h 0.0317 v -1.08514 h 2.12231 z m -2.12231,-3.64808 c 0,-1.32115 -0.45649,-2.50084 -1.90324,-2.50084 -1.258,0 -1.80798,1.10102 -1.80798,2.31176 0,1.16346 0.43991,2.43734 1.80798,2.43734 1.27353,0 1.90324,-1.08479 1.90324,-2.24826" />
      <path
         inkscape:connector-curvature="0"
         id="path916"
         style="fill:#000000;fill-opacity:1;fill-rule:nonzero;stroke:none;stroke-width:0.35277778"
         d="m -171.05333,113.51817 h 2.23308 v 11.22821 h -2.23308 z" />
      <path
         inkscape:connector-curvature="0"
         id="path918"
         style="fill:#000000;fill-opacity:1;fill-rule:nonzero;stroke:none;stroke-width:0.35277778"
         d="m -164.65429,115.3579 h -2.23309 v -1.83973 h 2.23309 z m -2.23309,1.25836 h 2.23309 v 8.13012 h -2.23309 z" />
      <path
         inkscape:connector-curvature="0"
         id="path920"
         style="fill:#000000;fill-opacity:1;fill-rule:nonzero;stroke:none;stroke-width:0.35277778"
         d="m -156.33774,121.01935 c 0,1.49402 1.16382,2.07575 2.48462,2.07575 0.86501,0 2.18581,-0.25153 2.18581,-1.39912 0,-1.21144 -1.68275,-1.4157 -3.33375,-1.85561 -1.66688,-0.44062 -3.34963,-1.08514 -3.34963,-3.19264 0,-2.29623 2.17029,-3.3969 4.19841,-3.3969 2.34315,0 4.49792,1.022 4.49792,3.61668 h -2.39042 c -0.0787,-1.35184 -1.03823,-1.69792 -2.21686,-1.69792 -0.78705,0 -1.69862,0.3302 -1.69862,1.27388 0,0.86466 0.53481,0.97473 3.34892,1.69792 0.81809,0.20461 3.3341,0.7239 3.3341,3.27131 0,2.05987 -1.6196,3.60116 -4.67007,3.60116 -2.48462,0 -4.8126,-1.22661 -4.78085,-3.99451 z" />
      <path
         inkscape:connector-curvature="0"
         id="path922"
         style="fill:#000000;fill-opacity:1;fill-rule:nonzero;stroke:none;stroke-width:0.35277778"
         d="m -145.06539,116.61619 h 1.63548 v 1.49402 h -1.63548 v 4.02554 c 0,0.75495 0.18838,0.94368 0.94333,0.94368 0.23565,0 0.45614,-0.0155 0.69215,-0.0624 v 1.74519 c -0.37748,0.0631 -0.86502,0.0787 -1.30563,0.0787 -1.36808,0 -2.56294,-0.31467 -2.56294,-1.93392 v -4.79672 h -1.35255 v -1.49402 h 1.35255 v -2.43734 h 2.23309 z" />
      <path
         inkscape:connector-curvature="0"
         id="path924"
         style="fill:#000000;fill-opacity:1;fill-rule:nonzero;stroke:none;stroke-width:0.35277778"
         d="m -134.57808,124.74645 h -2.12302 v -1.13242 h -0.0473 c -0.56586,0.91229 -1.54094,1.35255 -2.48426,1.35255 -2.37455,0 -2.97216,-1.33667 -2.97216,-3.34962 v -5.00063 h 2.23273 v 4.59211 c 0,1.33668 0.393,1.99672 1.43122,1.99672 1.21074,0 1.72967,-0.67592 1.72967,-2.32727 v -4.26156 h 2.23309 z" />
      <path
         inkscape:connector-curvature="0"
         id="path926"
         style="fill:#000000;fill-opacity:1;fill-rule:nonzero;stroke:none;stroke-width:0.35277778"
         d="m -127.00112,123.70882 h -0.0314 c -0.51858,0.88054 -1.43087,1.25801 -2.46839,1.25801 -2.45357,0 -3.64878,-2.10714 -3.64878,-4.3561 0,-2.18616 1.21109,-4.21464 3.60151,-4.21464 0.95885,0 1.90288,0.40887 2.40559,1.21109 h 0.0314 v -4.08869 h 2.23308 v 11.22785 h -2.12301 z m -1.94981,-5.62998 c -1.46226,0 -1.96567,1.25801 -1.96567,2.59468 0,1.27389 0.58173,2.61056 1.96567,2.61056 1.47814,0 1.91841,-1.2894 1.91841,-2.62643 0,-1.3208 -0.47166,-2.57881 -1.91841,-2.57881" />
      <path
         inkscape:connector-curvature="0"
         id="path928"
         style="fill:#000000;fill-opacity:1;fill-rule:nonzero;stroke:none;stroke-width:0.35277778"
         d="m -120.7444,115.3579 h -2.23308 v -1.83973 h 2.23308 z m -2.23308,1.25836 h 2.23308 v 8.13012 h -2.23308 z" />
      <path
         inkscape:connector-curvature="0"
         id="path930"
         style="fill:#000000;fill-opacity:1;fill-rule:nonzero;stroke:none;stroke-width:0.35277778"
         d="m -194.02114,140.7857 h -0.031 c -0.51894,0.88054 -1.43122,1.25801 -2.46945,1.25801 -2.45286,0 -3.64807,-2.10714 -3.64807,-4.3561 0,-2.18617 1.21073,-4.21428 3.60115,-4.21428 0.95921,0 1.90253,0.40886 2.4063,1.21073 h 0.031 v -4.0887 h 2.23309 v 11.22786 h -2.12302 z m -1.9498,-5.62998 c -1.46227,0 -1.96568,1.25801 -1.96568,2.59468 0,1.27388 0.58173,2.61056 1.96568,2.61056 1.47814,0 1.91876,-1.2894 1.91876,-2.62643 0,-1.3208 -0.47202,-2.57881 -1.91876,-2.57881" />
      <path
         inkscape:connector-curvature="0"
         id="path932"
         style="fill:#000000;fill-opacity:1;fill-rule:nonzero;stroke:none;stroke-width:0.35277778"
         d="m -187.76441,132.43517 h -2.23309 v -1.83974 h 2.23309 z m -2.23309,1.25801 h 2.23309 v 8.13011 h -2.23309 z" />
      <path
         inkscape:connector-curvature="0"
         id="path934"
         style="fill:#000000;fill-opacity:1;fill-rule:nonzero;stroke:none;stroke-width:0.35277778"
         d="m -181.86943,130.59547 h 7.89376 v 2.07574 h -5.42502 v 2.59469 h 4.70182 v 1.91875 h -4.70182 v 4.63868 h -2.46874 z" />
      <path
         inkscape:connector-curvature="0"
         id="path936"
         style="fill:#000000;fill-opacity:1;fill-rule:nonzero;stroke:none;stroke-width:0.35277778"
         d="m -171.02162,138.30116 c 0.0628,1.41499 0.75495,2.05987 1.99743,2.05987 0.89641,0 1.6196,-0.55069 1.76072,-1.0541 h 1.96603 c -0.62901,1.91876 -1.96603,2.7365 -3.80577,2.7365 -2.56328,0 -4.15149,-1.76107 -4.15149,-4.27708 0,-2.43734 1.6831,-4.29295 4.15149,-4.29295 2.76789,0 4.10457,2.32727 3.94688,4.82776 z m 3.63291,-1.4157 c -0.20426,-1.13171 -0.69215,-1.72967 -1.77729,-1.72967 -1.415,0 -1.82387,1.10067 -1.85562,1.72967 z" />
      <path
         inkscape:connector-curvature="0"
         id="path938"
         style="fill:#000000;fill-opacity:1;fill-rule:nonzero;stroke:none;stroke-width:0.35277778"
         d="m -163.6802,133.69307 h 2.12301 v 1.50989 h 0.031 c 0.40922,-1.02235 1.50989,-1.72967 2.59468,-1.72967 0.15734,0 0.34642,0.0314 0.48789,0.0783 v 2.07609 c -0.20461,-0.0473 -0.53481,-0.079 -0.80222,-0.079 -1.63548,0 -2.20133,1.17969 -2.20133,2.61056 v 3.66395 h -2.23308 z" />
      <path
         inkscape:connector-curvature="0"
         id="path940"
         style="fill:#000000;fill-opacity:1;fill-rule:nonzero;stroke:none;stroke-width:0.35277778"
         d="m -157.24991,133.69307 h 2.12301 v 1.50989 h 0.031 c 0.40957,-1.02235 1.50989,-1.72967 2.59468,-1.72967 0.15734,0 0.34643,0.0314 0.48789,0.0783 v 2.07609 c -0.20461,-0.0473 -0.53481,-0.079 -0.80222,-0.079 -1.63547,0 -2.20133,1.17969 -2.20133,2.61056 v 3.66395 h -2.23308 z" />
      <path
         inkscape:connector-curvature="0"
         id="path942"
         style="fill:#000000;fill-opacity:1;fill-rule:nonzero;stroke:none;stroke-width:0.35277778"
         d="m -150.91441,136.19352 c 0.12559,-2.09126 1.99707,-2.72027 3.82129,-2.72027 1.6196,0 3.5694,0.3616 3.5694,2.3114 v 4.23016 c 0,0.73907 0.079,1.47814 0.28328,1.80834 h -2.26448 c -0.0787,-0.25118 -0.14181,-0.51858 -0.15698,-0.78599 -0.70803,0.73907 -1.74555,1.00648 -2.7365,1.00648 -1.54129,0 -2.76754,-0.77082 -2.76754,-2.43734 0,-1.83974 1.38324,-2.28036 2.76754,-2.46945 1.36772,-0.20426 2.6416,-0.15698 2.6416,-1.06891 0,-0.95921 -0.66005,-1.10102 -1.44639,-1.10102 -0.84914,0 -1.39982,0.34607 -1.47814,1.2266 z m 5.15761,1.65136 c -0.37747,0.3302 -1.16381,0.34607 -1.85561,0.47166 -0.6918,0.14182 -1.3208,0.37747 -1.3208,1.19521 0,0.83362 0.64488,1.03787 1.36842,1.03787 1.74555,0 1.80799,-1.38394 1.80799,-1.87148 z" />
      <path
         inkscape:connector-curvature="0"
         id="path944"
         style="fill:#000000;fill-opacity:1;fill-rule:nonzero;stroke:none;stroke-width:0.35277778"
         d="m -141.79627,133.69307 h 2.12302 v 1.50989 h 0.031 c 0.40958,-1.02235 1.50989,-1.72967 2.59468,-1.72967 0.15734,0 0.34643,0.0314 0.48789,0.0783 v 2.07609 c -0.20461,-0.0473 -0.53481,-0.079 -0.80221,-0.079 -1.63548,0 -2.20134,1.17969 -2.20134,2.61056 v 3.66395 h -2.23308 z" />
      <path
         inkscape:connector-curvature="0"
         id="path946"
         style="fill:#000000;fill-opacity:1;fill-rule:nonzero;stroke:none;stroke-width:0.35277778"
         d="m -135.46014,136.19352 c 0.12559,-2.09126 1.99708,-2.72027 3.82129,-2.72027 1.61961,0 3.56941,0.3616 3.56941,2.3114 v 4.23016 c 0,0.73907 0.079,1.47814 0.28328,1.80834 h -2.26448 c -0.0787,-0.25118 -0.14182,-0.51858 -0.15734,-0.78599 -0.70767,0.73907 -1.74519,1.00648 -2.7365,1.00648 -1.54093,0 -2.76754,-0.77082 -2.76754,-2.43734 0,-1.83974 1.3836,-2.28036 2.76754,-2.46945 1.36808,-0.20426 2.64196,-0.15698 2.64196,-1.06891 0,-0.95921 -0.6604,-1.10102 -1.44639,-1.10102 -0.84914,0 -1.39983,0.34607 -1.47814,1.2266 z m 5.15762,1.65136 c -0.37712,0.3302 -1.16382,0.34607 -1.85562,0.47166 -0.69215,0.14182 -1.32115,0.37747 -1.32115,1.19521 0,0.83362 0.64488,1.03787 1.36878,1.03787 1.74554,0 1.80799,-1.38394 1.80799,-1.87148 z" />
      <path
         inkscape:connector-curvature="0"
         id="path948"
         style="fill:#000000;fill-opacity:1;fill-rule:nonzero;stroke:none;stroke-width:0.35277778"
         d="m -244.77859,94.484785 c -13.83171,0 -25.08497,11.255025 -25.08497,25.088145 0,13.83347 11.25326,25.0885 25.08497,25.0885 13.83171,0 25.08532,-11.25503 25.08532,-25.0885 0,-13.83312 -11.25361,-25.088145 -25.08532,-25.088145 m 0,51.018725 c -14.29667,0 -25.92776,-11.63215 -25.92776,-25.93058 0,-14.29808 11.63109,-25.930578 25.92776,-25.930578 14.29667,0 25.9281,11.632498 25.9281,25.930578 0,14.29843 -11.63143,25.93058 -25.9281,25.93058" />
      <path
         inkscape:connector-curvature="0"
         id="path950"
         style="fill:#000000;fill-opacity:1;fill-rule:nonzero;stroke:none;stroke-width:0.35277778"
         d="m -242.52886,119.49535 c 0,0 -0.0448,0.32632 -0.1778,0.88512 -0.13441,0.55774 -0.3436,1.35291 -0.68686,2.2793 -0.15875,0.46884 -0.37147,0.96061 -0.59266,1.48414 -0.23001,0.51928 -0.49707,1.05868 -0.78458,1.60972 -0.31327,0.53905 -0.60572,1.11548 -0.9839,1.65488 -0.18097,0.27517 -0.36336,0.55245 -0.54645,0.83115 l -0.61137,0.79868 c -0.39123,0.54752 -0.86007,1.03576 -1.3021,1.53388 -0.42545,0.51435 -0.94438,0.92816 -1.39559,1.3783 -0.44732,0.45791 -0.97084,0.8001 -1.42063,1.17969 -0.44874,0.38206 -0.92322,0.67875 -1.35538,0.96132 -0.43673,0.27482 -0.81668,0.56339 -1.19203,0.75459 -0.37183,0.19827 -0.69638,0.37113 -0.96344,0.51365 -1.07279,0.46672 -1.35149,0.56903 -1.35149,0.56903 l 0.0744,-1.36066 c 0,0 0.16122,-0.0759 0.68121,-0.31786 0.2607,-0.12206 0.57785,-0.26917 0.94086,-0.43815 0.36795,-0.16298 0.73942,-0.41733 1.17052,-0.65616 0.42545,-0.2473 0.89535,-0.50483 1.34161,-0.84667 0.44662,-0.33831 0.97014,-0.63888 1.41993,-1.05445 0.45473,-0.40781 0.97966,-0.77929 1.41464,-1.25095 0.45191,-0.4565 0.93239,-0.90417 1.33985,-1.41394 l 0.63712,-0.74189 c 0.19367,-0.26105 0.38593,-0.52105 0.57643,-0.77858 0.39935,-0.50623 0.71438,-1.05163 1.05199,-1.56316 0.3115,-0.52387 0.60325,-1.03787 0.85795,-1.53599 0.24695,-0.50095 0.48472,-0.97508 0.6664,-1.42734 0.39123,-0.895 0.64241,-1.66899 0.80645,-2.21227 0.16334,-0.54504 0.22543,-0.86219 0.22543,-0.86219 z" />
      <path
         inkscape:connector-curvature="0"
         id="path952"
         style="fill:#000000;fill-opacity:1;fill-rule:nonzero;stroke:none;stroke-width:0.35277778"
         d="m -244.7576,107.48355 c 4.13702,0 6.85553,1.15359 6.85553,1.15359 l 3.80083,-6.70948 c 0,0 -1.08233,-0.0455 -1.74555,0.6223 -0.18556,-0.17322 -0.42651,-0.26953 -0.68298,-0.26953 -0.55739,0 -1.01106,0.45368 -1.01106,1.01142 0,0.33831 0.1651,0.64664 0.43815,0.83361 -0.22119,0.2226 -0.81915,0.75847 -1.44886,0.75847 -0.12805,0 -0.25294,-0.0229 -0.37006,-0.0677 -1.00753,-0.38418 -0.94968,-1.26012 -0.84984,-1.69263 0.49353,-0.0395 0.86889,-0.42016 0.86889,-0.89958 0,-0.50024 -0.40675,-0.90699 -0.90664,-0.90699 -0.50024,0 -0.90628,0.40675 -0.90628,0.90699 0,0.2547 0.109,0.49953 0.29598,0.67239 -0.31503,0.45473 -1.06786,0.89888 -1.8662,0.89888 -0.14323,0 -0.28363,-0.0148 -0.41698,-0.0441 -0.69462,-0.15275 -1.10808,-0.93556 -1.28658,-1.36736 0.054,0.01 0.11077,0.0159 0.17039,0.0159 0.67522,0 1.22414,-0.54892 1.22414,-1.22414 0,-1.08867 -1.13136,-1.192739 -1.28094,-1.192739 0,0 0.0646,-0.729191 -0.88194,-1.982611 h -3.6e-4 c -0.9465,1.25342 -0.88194,1.982611 -0.88194,1.982611 -0.14922,0 -1.28129,0.104069 -1.28129,1.192739 0,0.67522 0.54892,1.22414 1.22414,1.22414 0.0596,0 0.11677,-0.006 0.1711,-0.0159 -0.17851,0.4318 -0.59232,1.21461 -1.28694,1.36736 -0.1337,0.0293 -0.2741,0.0441 -0.41733,0.0441 -0.79834,0 -1.55117,-0.44415 -1.8662,-0.89888 0.18733,-0.17286 0.29669,-0.41769 0.29669,-0.67239 0,-0.50024 -0.40675,-0.90699 -0.90664,-0.90699 -0.50024,0 -0.90629,0.40675 -0.90629,0.90699 0,0.47942 0.37465,0.86007 0.86819,0.89958 0.0998,0.43251 0.15805,1.30845 -0.84914,1.69263 -0.11782,0.0448 -0.242,0.0677 -0.37041,0.0677 -0.62971,0 -1.22802,-0.53587 -1.44921,-0.75847 0.2734,-0.18697 0.43815,-0.4953 0.43815,-0.83361 0,-0.55774 -0.45332,-1.01142 -1.01071,-1.01142 -0.25612,0 -0.49707,0.0963 -0.68263,0.26953 -0.66322,-0.66781 -1.74554,-0.6223 -1.74554,-0.6223 l 3.80012,6.70948 c 0,0 2.71886,-1.15359 6.85588,-1.15359 z" />
      <path
         inkscape:connector-curvature="0"
         id="path954"
         style="fill:#000000;fill-opacity:1;fill-rule:nonzero;stroke:none;stroke-width:0.35277778"
         d="m -261.70953,121.05096 c 0,0.0374 -0.0282,0.0593 -0.085,0.0653 -0.0187,0 -0.19544,0.006 -0.52881,0.0183 -0.20779,0.006 -0.32879,0.0395 -0.36336,0.10089 -0.0349,0.0614 -0.0522,0.26071 -0.0522,0.59937 v 2.52907 c 0,0.0818 0.013,0.1404 0.0384,0.17533 0.0381,0.0759 0.14605,0.11395 0.32385,0.11395 h 0.22895 l 0.22896,0.0173 c 0.0953,0.006 0.14322,0.0265 0.14322,0.0614 0,0.0469 -0.0564,0.0706 -0.17004,0.0706 h -0.0469 -1.88878 -0.94403 c -0.15134,0 -0.22684,-0.0236 -0.22684,-0.0702 0,-0.0353 0.0268,-0.0568 0.0804,-0.0656 0.0533,-0.008 0.20284,-0.0134 0.44838,-0.0134 0.21378,0 0.34607,-0.0219 0.39652,-0.0653 0.0505,-0.0437 0.0755,-0.15628 0.0755,-0.33725 v -2.00484 c 0,-0.61842 -0.0152,-0.95391 -0.0469,-1.00647 -0.0497,-0.0762 -0.25188,-0.11677 -0.60713,-0.12277 -0.18732,0 -0.28045,-0.0233 -0.28045,-0.0699 0,-0.0526 0.091,-0.0762 0.27375,-0.0702 l 0.19826,0.009 1.35008,-0.009 h 0.51012 0.72672 c 0.14464,0 0.21731,0.025 0.21731,0.0744" />
      <path
         inkscape:connector-curvature="0"
         id="path956"
         style="fill:#000000;fill-opacity:1;fill-rule:nonzero;stroke:none;stroke-width:0.35277778"
         d="m -256.70552,125.00394 c 0,0.64312 -0.34607,1.12325 -1.03857,1.43898 -0.52882,0.23989 -1.10455,0.35948 -1.72791,0.35948 -0.40287,0 -0.74718,-0.0903 -1.03364,-0.27164 -0.28681,-0.18168 -0.42968,-0.39793 -0.42968,-0.64911 0,-0.34572 0.20144,-0.51823 0.60431,-0.51823 0.33937,0 0.50976,0.1524 0.50976,0.45614 0,0.14076 -0.0787,0.26917 -0.23601,0.3863 -0.0942,0.0705 -0.14146,0.12312 -0.14146,0.15804 0,0.0642 0.0769,0.12559 0.23107,0.18415 0.15381,0.0586 0.31009,0.0878 0.46743,0.0878 0.39652,0 0.72249,-0.1464 0.97719,-0.43885 0.25506,-0.2921 0.38241,-0.66958 0.38241,-1.13171 0,-0.70732 -0.2487,-1.15817 -0.74577,-1.35114 -0.10724,-0.0409 -0.28998,-0.0614 -0.54751,-0.0614 h -0.12312 c -0.11924,0 -0.17921,-0.0264 -0.17921,-0.079 0,-0.0413 0.0656,-0.0705 0.19791,-0.0882 0.39052,-0.0469 0.69285,-0.18063 0.90699,-0.40076 0.21378,-0.22013 0.32032,-0.50341 0.32032,-0.84984 0,-0.31679 -0.10336,-0.57644 -0.31115,-0.77893 -0.20778,-0.20285 -0.47237,-0.30375 -0.79269,-0.30375 -0.19544,0 -0.38488,0.0455 -0.56691,0.13688 -0.18274,0.091 -0.27376,0.1838 -0.27376,0.27799 0,0.0586 0.085,0.11183 0.25471,0.1591 0.27058,0.0766 0.4064,0.21732 0.4064,0.42369 0,0.11748 -0.0462,0.21625 -0.13723,0.29563 -0.0914,0.0797 -0.20638,0.11924 -0.34431,0.11924 -0.18909,0 -0.34185,-0.0512 -0.45862,-0.15346 -0.11606,-0.10266 -0.17462,-0.23813 -0.17462,-0.40817 0,-0.32138 0.17216,-0.58631 0.5147,-0.7941 0.34326,-0.20743 0.78211,-0.31185 1.31727,-0.31185 0.56621,0 1.03082,0.11606 1.39277,0.34678 0.36195,0.23142 0.54293,0.52811 0.54293,0.89041 0,0.35101 -0.18415,0.65264 -0.55245,0.90452 -0.3683,0.25083 -0.84173,0.40005 -1.42099,0.44732 v 0.0434 h 0.14146 c 0.46602,0 0.88477,0.091 1.25624,0.27235 0.54116,0.26317 0.81174,0.66393 0.81174,1.20191" />
      <path
         inkscape:connector-curvature="0"
         id="path958"
         style="fill:#000000;fill-opacity:1;fill-rule:nonzero;stroke:none;stroke-width:0.35277778"
         d="m -230.19208,122.77474 c 0,-0.58914 -0.0977,-1.03223 -0.29245,-1.32997 -0.17004,-0.26212 -0.40005,-0.3937 -0.68898,-0.3937 -0.20179,0 -0.38135,0.079 -0.53869,0.23636 -0.23918,0.23918 -0.35842,0.65052 -0.35842,1.23331 0,1.13806 0.30797,1.70639 0.92534,1.70639 0.28292,0 0.51293,-0.13371 0.68897,-0.40217 0.17639,-0.26811 0.26423,-0.61842 0.26423,-1.05022 m 1.33138,0.59302 c 0,0.97684 -0.29668,1.79246 -0.88935,2.44757 -0.59337,0.65546 -1.3342,0.98284 -2.22356,0.98284 -0.37253,0 -0.67345,-0.0741 -0.90346,-0.22401 -0.23072,-0.14852 -0.34572,-0.34043 -0.34572,-0.57433 0,-0.16968 0.0564,-0.30585 0.17004,-0.40781 0.11324,-0.10266 0.26458,-0.15346 0.45332,-0.15346 0.35242,0 0.52881,0.14323 0.52881,0.42934 0,0.12876 -0.0413,0.23106 -0.12312,0.30726 -0.0441,0.0469 -0.14746,0.1143 -0.3115,0.20179 -0.0378,0.0176 -0.0568,0.0438 -0.0568,0.079 0,0.12841 0.18344,0.19297 0.55033,0.19297 0.49918,0 0.89606,-0.26282 1.18992,-0.78952 0.29422,-0.52635 0.44098,-1.12289 0.44098,-1.79 -0.32738,0.28681 -0.73025,0.43004 -1.20827,0.43004 -0.53516,0 -0.98072,-0.16545 -1.33632,-0.49565 -0.35595,-0.3302 -0.53305,-0.73872 -0.53305,-1.22414 0,-0.54398 0.21837,-0.99272 0.65617,-1.34691 0.43709,-0.35348 0.98954,-0.53093 1.657,-0.53093 0.70414,0 1.26188,0.21978 1.67075,0.65864 0.40958,0.4385 0.61383,1.04069 0.61383,1.80728" />
      <path
         inkscape:connector-curvature="0"
         id="path960"
         style="fill:#000000;fill-opacity:1;fill-rule:nonzero;stroke:none;stroke-width:0.35277778"
         d="m -224.41354,121.0553 c 0,0.0374 -0.0282,0.0593 -0.085,0.0653 -0.0187,0 -0.19544,0.006 -0.52882,0.0183 -0.20778,0.006 -0.32879,0.0395 -0.36336,0.10089 -0.0349,0.0614 -0.0522,0.26071 -0.0522,0.59937 v 2.52907 c 0,0.0818 0.013,0.1404 0.0384,0.17533 0.0381,0.0758 0.14605,0.11394 0.32385,0.11394 h 0.22896 l 0.22895,0.0173 c 0.0952,0.006 0.14323,0.0265 0.14323,0.0617 0,0.0466 -0.0564,0.0698 -0.17004,0.0698 h -0.0469 -1.88877 -0.94404 c -0.15134,0 -0.22683,-0.0233 -0.22683,-0.0698 0,-0.0353 0.0268,-0.0568 0.0804,-0.0656 0.0536,-0.009 0.20285,-0.0134 0.44838,-0.0134 0.21378,0 0.34608,-0.0219 0.39652,-0.0653 0.0505,-0.0437 0.0755,-0.15628 0.0755,-0.33725 v -2.00484 c 0,-0.61842 -0.0152,-0.95391 -0.0466,-1.00648 -0.0501,-0.0762 -0.25224,-0.11677 -0.60748,-0.12276 -0.18697,0 -0.28046,-0.0233 -0.28046,-0.0699 0,-0.0526 0.091,-0.0762 0.27411,-0.0702 l 0.19791,0.009 1.35008,-0.009 h 0.50976 0.72743 c 0.14428,0 0.21696,0.025 0.21696,0.0744" />
      <path
         inkscape:connector-curvature="0"
         id="path962"
         style="fill:#000000;fill-opacity:1;fill-rule:nonzero;stroke:none;stroke-width:0.35277778"
         d="m -277.22304,120.35281 0.0423,-2.76613 0.60325,0.01 -0.0307,2.06481 1.04492,0.0159 0.0282,-1.81186 0.57044,0.009 -0.0282,1.81221 1.772,0.0275 -0.0106,0.70062 z" />
      <path
         inkscape:connector-curvature="0"
         id="path964"
         style="fill:#000000;fill-opacity:1;fill-rule:nonzero;stroke:none;stroke-width:0.35277778"
         d="m -276.94184,115.24925 0.5073,-2.83845 0.59478,0.10583 -0.38382,2.14807 1.02976,0.18309 0.3556,-1.98755 0.56162,0.0998 -0.3556,1.98826 1.15111,0.20496 0.39053,-2.18687 0.59513,0.10584 -0.51435,2.8769 z" />
      <path
         inkscape:connector-curvature="0"
         id="path966"
         style="fill:#000000;fill-opacity:1;fill-rule:nonzero;stroke:none;stroke-width:0.35277778"
         d="m -275.79997,110.0408 0.64947,-1.79987 c 0.29739,-0.82338 0.82867,-1.10807 1.46544,-0.87771 0.72072,0.26141 0.72354,0.82938 0.72178,0.96626 l 0.0106,0.004 c 0.11325,-0.2159 0.40147,-0.48719 0.99625,-0.27129 0.43638,0.15805 0.85901,0.23989 1.06257,0.1524 l -0.25542,0.70697 c -0.19861,0.0416 -0.40393,-0.0328 -0.58772,-0.0998 -0.68968,-0.24976 -1.04599,-0.21766 -1.26542,0.38912 l -0.35101,0.97155 1.54622,0.56056 -0.23812,0.66005 z m 1.94769,-0.0399 0.39053,-1.08197 c 0.15063,-0.41734 0.0272,-0.71861 -0.3676,-0.86184 -0.47872,-0.17356 -0.68509,0.10372 -0.80962,0.44662 l -0.38665,1.07174 z" />
      <path
         inkscape:connector-curvature="0"
         id="path968"
         style="fill:#000000;fill-opacity:1;fill-rule:nonzero;stroke:none;stroke-width:0.35277778"
         d="m -273.63112,104.72483 0.95214,-1.66017 c 0.43604,-0.75953 1.0086,-0.94792 1.59527,-0.61101 0.66533,0.3817 0.57008,0.94156 0.54468,1.07597 l 0.01,0.006 c 0.14922,-0.19261 0.48048,-0.40992 1.02835,-0.0956 0.40322,0.23107 0.80504,0.38488 1.02129,0.33373 l -0.37465,0.65228 c -0.2032,0.006 -0.39229,-0.1023 -0.56162,-0.19967 -0.63606,-0.36512 -0.99272,-0.39511 -1.3141,0.16475 l -0.51365,0.89535 1.42629,0.81915 -0.34855,0.60854 z m 1.92581,0.29669 0.57291,-0.99801 c 0.22049,-0.38453 0.15134,-0.70238 -0.21272,-0.91123 -0.44133,-0.25364 -0.69356,-0.0166 -0.87489,0.29986 l -0.56727,0.98813 z" />
      <path
         inkscape:connector-curvature="0"
         id="path970"
         style="fill:#000000;fill-opacity:1;fill-rule:nonzero;stroke:none;stroke-width:0.35277778"
         d="m -269.87129,99.039675 0.47731,-0.573264 4.05095,1.373717 -0.48013,0.577142 -1.05269,-0.38841 -1.022,1.22732 0.57044,0.96555 -0.46249,0.55598 z m 1.68804,1.730025 0.78176,-0.939097 -1.70145,-0.638881 -0.0106,0.0127 z" />
      <path
         inkscape:connector-curvature="0"
         id="path972"
         style="fill:#000000;fill-opacity:1;fill-rule:nonzero;stroke:none;stroke-width:0.35277778"
         d="m -266.83909,95.75348 1.46191,-1.233664 c 0.66887,-0.564445 1.27212,-0.5461 1.7085,-0.02893 0.49354,0.585611 0.21237,1.078794 0.14252,1.196269 l 0.007,0.0085 c 0.20602,-0.129822 0.59161,-0.221192 0.99872,0.262114 0.29986,0.354542 0.62512,0.635706 0.84596,0.662164 l -0.57468,0.485069 c -0.19403,-0.06385 -0.33478,-0.230716 -0.46037,-0.379941 -0.47308,-0.559859 -0.79763,-0.710495 -1.29082,-0.294217 l -0.78881,0.665692 1.0601,1.256594 -0.53587,0.452261 z m 1.70744,0.936625 0.87983,-0.741539 c 0.33831,-0.28575 0.38241,-0.608189 0.11183,-0.928159 -0.32844,-0.389466 -0.64629,-0.252588 -0.92498,-0.01764 l -0.87066,0.73413 z" />
      <path
         inkscape:connector-curvature="0"
         id="path974"
         style="fill:#000000;fill-opacity:1;fill-rule:nonzero;stroke:none;stroke-width:0.35277778"
         d="m -262.33627,92.294352 0.59266,-0.373591 2.13184,3.377847 -0.59231,0.373944 z" />
      <path
         inkscape:connector-curvature="0"
         id="path976"
         style="fill:#000000;fill-opacity:1;fill-rule:nonzero;stroke:none;stroke-width:0.35277778"
         d="m -258.51392,90.175075 0.67909,-0.309033 3.0607,2.997553 -0.68439,0.311502 -0.77999,-0.806802 -1.45485,0.662164 0.0967,1.118658 -0.65864,0.299861 z m 0.77399,2.29235 1.11196,-0.506589 -1.25836,-1.315155 -0.0152,0.0074 z" />
      <path
         inkscape:connector-curvature="0"
         id="path978"
         style="fill:#000000;fill-opacity:1;fill-rule:nonzero;stroke:none;stroke-width:0.35277778"
         d="m -254.36586,88.542279 2.7873,-0.74542 0.15522,0.583495 -2.1089,0.564091 0.27022,1.00965 1.95228,-0.521758 0.14675,0.550333 -1.95227,0.522111 0.30127,1.128889 2.14701,-0.574322 0.15628,0.583847 -2.82505,0.755297 z" />
      <path
         inkscape:connector-curvature="0"
         id="path980"
         style="fill:#000000;fill-opacity:1;fill-rule:nonzero;stroke:none;stroke-width:0.35277778"
         d="m -246.01049,87.07557 0.70061,0.0071 -0.0247,2.327628 c -0.006,0.536928 0.0212,1.158522 0.92957,1.167695 0.90699,0.0088 0.94756,-0.611717 0.95391,-1.148292 l 0.0247,-2.327981 0.70062,0.0067 -0.0275,2.557286 c -0.0109,1.024114 -0.67239,1.526117 -1.65876,1.516239 -0.98672,-0.0099 -1.63724,-0.525639 -1.62595,-1.5494 z" />
      <path
         inkscape:connector-curvature="0"
         id="path982"
         style="fill:#000000;fill-opacity:1;fill-rule:nonzero;stroke:none;stroke-width:0.35277778"
         d="m -240.12944,87.376948 0.72672,0.142522 1.22978,3.240264 0.0117,0.0018 0.56444,-2.887839 0.65511,0.128764 -0.76659,3.920419 -0.72637,-0.142522 -1.2259,-3.233914 -0.0162,-0.0032 -0.56374,2.882547 -0.6551,-0.128764 z" />
      <path
         inkscape:connector-curvature="0"
         id="path984"
         style="fill:#000000;fill-opacity:1;fill-rule:nonzero;stroke:none;stroke-width:0.35277778"
         d="m -234.47724,88.75839 0.66217,0.230364 -1.31092,3.773664 -0.66252,-0.231069 z" />
      <path
         inkscape:connector-curvature="0"
         id="path986"
         style="fill:#000000;fill-opacity:1;fill-rule:nonzero;stroke:none;stroke-width:0.35277778"
         d="m -231.83599,89.724049 0.65194,0.324555 -0.51118,3.277306 0.0102,0.0049 2.32728,-2.373136 0.63711,0.317147 -3.00461,2.967214 -0.69708,-0.347133 z" />
      <path
         inkscape:connector-curvature="0"
         id="path988"
         style="fill:#000000;fill-opacity:1;fill-rule:nonzero;stroke:none;stroke-width:0.35277778"
         d="m -226.86221,92.436592 2.33574,1.686278 -0.35348,0.490361 -1.76777,-1.27635 -0.61136,0.849136 1.63547,1.181453 -0.33337,0.462845 -1.63548,-1.1811 -0.68298,0.948972 1.79811,1.29928 -0.35207,0.490714 -2.36749,-1.709561 z" />
      <path
         inkscape:connector-curvature="0"
         id="path990"
         style="fill:#000000;fill-opacity:1;fill-rule:nonzero;stroke:none;stroke-width:0.35277778"
         d="m -222.66867,95.720107 1.33738,1.368072 c 0.61207,0.626181 0.63818,1.228372 0.15452,1.702153 -0.54751,0.535869 -1.0601,0.291394 -1.18251,0.230364 l -0.008,0.0078 c 0.14464,0.196144 0.26388,0.573969 -0.18768,1.016004 -0.33196,0.32491 -0.58808,0.67027 -0.59831,0.89217 l -0.52599,-0.53763 c 0.0494,-0.19756 0.20567,-0.34996 0.34572,-0.486836 0.52317,-0.512586 0.64982,-0.847725 0.19827,-1.309511 l -0.72214,-0.738364 -1.17475,1.150056 -0.49071,-0.501298 z m -0.80857,1.772708 0.80398,0.822678 c 0.3101,0.316794 0.635,0.336903 0.93416,0.04339 0.36371,-0.355953 0.20391,-0.66287 -0.0504,-0.923925 l -0.79657,-0.814564 z" />
      <path
         inkscape:connector-curvature="0"
         id="path992"
         style="fill:#000000;fill-opacity:1;fill-rule:nonzero;stroke:none;stroke-width:0.35277778"
         d="m -220.76198,101.88783 c -0.50729,0.34748 -0.44908,0.85795 -0.13299,1.32044 0.34819,0.50871 0.72707,0.52776 0.97613,0.35666 0.25365,-0.17392 0.26071,-0.38206 0.21943,-0.55104 -0.0709,-0.29139 -0.21661,-0.63288 -0.40217,-1.17122 -0.23424,-0.66887 -0.007,-1.06927 0.33479,-1.30316 0.66005,-0.45226 1.38606,-0.0536 1.79493,0.54328 0.47202,0.68862 0.50271,1.51624 -0.1845,1.9879 l -0.39546,-0.5782 c 0.40534,-0.31891 0.36547,-0.71261 0.0938,-1.1109 -0.1838,-0.26776 -0.51224,-0.53869 -0.84385,-0.31115 -0.23036,0.15804 -0.25188,0.40358 -0.15557,0.68368 0.0212,0.06 0.33231,0.9204 0.39863,1.12642 0.16863,0.52353 -0.0582,0.98461 -0.39934,1.21814 -0.73801,0.50624 -1.48308,0.0519 -1.93252,-0.60501 -0.51646,-0.75353 -0.57397,-1.61078 0.23284,-2.1844 z" />
      <path
         inkscape:connector-curvature="0"
         id="path994"
         style="fill:#000000;fill-opacity:1;fill-rule:nonzero;stroke:none;stroke-width:0.35277778"
         d="m -215.99958,104.55162 0.31573,0.62618 -3.56764,1.80093 -0.31573,-0.62618 z" />
      <path
         inkscape:connector-curvature="0"
         id="path996"
         style="fill:#000000;fill-opacity:1;fill-rule:nonzero;stroke:none;stroke-width:0.35277778"
         d="m -214.75435,107.15399 1.08268,3.05435 -0.57009,0.20179 -0.4251,-1.19945 -3.19581,1.13242 -0.23354,-0.6604 3.19511,-1.13312 -0.42298,-1.19416 z" />
      <path
         inkscape:connector-curvature="0"
         id="path998"
         style="fill:#000000;fill-opacity:1;fill-rule:nonzero;stroke:none;stroke-width:0.35277778"
         d="m -213.02517,112.91386 0.14358,0.73272 -3.62479,2.28282 -0.14464,-0.7373 0.96555,-0.57256 -0.30833,-1.5688 -1.11054,-0.1651 -0.13935,-0.71014 z m -2.40983,0.22154 0.23566,1.20015 1.57092,-0.91969 -0.004,-0.0169 z" />
      <path
         inkscape:connector-curvature="0"
         id="path1000"
         style="fill:#000000;fill-opacity:1;fill-rule:nonzero;stroke:none;stroke-width:0.35277778"
         d="m -215.04303,117.85903 c -0.61559,0.0155 -0.84419,0.4766 -0.82938,1.03717 0.0159,0.617 0.32315,0.8389 0.62548,0.83149 0.30727,-0.008 0.4258,-0.17886 0.48295,-0.34325 0.0991,-0.28328 0.16263,-0.64982 0.29986,-1.20333 0.16687,-0.68932 0.57468,-0.9017 0.98884,-0.91228 0.79975,-0.0205 1.19274,0.71014 1.21109,1.43404 0.0219,0.83573 -0.40252,1.54834 -1.23508,1.56951 l -0.0183,-0.70132 c 0.5147,-0.0466 0.69462,-0.39935 0.68262,-0.88159 -0.008,-0.32562 -0.13617,-0.73202 -0.53799,-0.72143 -0.27975,0.007 -0.4318,0.20143 -0.5027,0.48965 -0.0148,0.0624 -0.22155,0.95427 -0.27764,1.16346 -0.14287,0.53129 -0.5842,0.79516 -0.99766,0.80575 -0.89464,0.0229 -1.27282,-0.76482 -1.29293,-1.56104 -0.0233,-0.91405 0.39406,-1.66582 1.38289,-1.70815 z" />
      <path
         inkscape:connector-curvature="0"
         id="path1002"
         style="fill:#000000;fill-opacity:1;fill-rule:nonzero;stroke:none;stroke-width:0.35277778"
         d="m -274.70674,125.38381 c -0.34361,0.0582 -0.66781,-0.16968 -0.72567,-0.51435 -0.0582,-0.34466 0.17216,-0.67063 0.51612,-0.72884 0.3436,-0.0582 0.66463,0.17357 0.72284,0.51859 0.0582,0.34466 -0.16969,0.66675 -0.51329,0.7246" />
      <path
         inkscape:connector-curvature="0"
         id="path1004"
         style="fill:#000000;fill-opacity:1;fill-rule:nonzero;stroke:none;stroke-width:0.35277778"
         d="m -215.36765,124.656 c 0.0589,-0.34467 0.38065,-0.5775 0.7239,-0.51859 0.34431,0.0589 0.57538,0.38524 0.51682,0.73061 -0.0593,0.34537 -0.38347,0.57291 -0.72743,0.51399 -0.34431,-0.0586 -0.5715,-0.38064 -0.51329,-0.72601" />
      <path
         inkscape:connector-curvature="0"
         id="path1006"
         style="fill:#000000;fill-opacity:1;fill-rule:nonzero;stroke:none;stroke-width:0.35277778"
         d="m -271.62925,128.93674 1.06715,2.67865 -0.56162,0.22366 -0.8068,-2.02742 -0.97296,0.38771 0.74753,1.87572 -0.53057,0.21166 -0.74684,-1.87572 -1.08655,0.43286 0.82162,2.06375 -0.56162,0.22366 -1.08091,-2.71533 z" />
      <path
         inkscape:connector-curvature="0"
         id="path1008"
         style="fill:#000000;fill-opacity:1;fill-rule:nonzero;stroke:none;stroke-width:0.35277778"
         d="m -270.13139,132.54298 0.42227,0.72037 -0.75635,1.49613 1.6958,0.10584 0.39688,0.67768 -2.32869,-0.16968 -1.06715,2.26977 -0.43039,-0.73554 0.81103,-1.63266 -1.83021,-0.10477 -0.40604,-0.69145 2.50331,0.17815 z" />
      <path
         inkscape:connector-curvature="0"
         id="path1010"
         style="fill:#000000;fill-opacity:1;fill-rule:nonzero;stroke:none;stroke-width:0.35277778"
         d="m -266.3475,138.1585 0.47766,0.51294 -2.48143,2.31281 1.38747,1.48801 -0.44203,0.4124 -1.86655,-2.00096 z" />
      <path
         inkscape:connector-curvature="0"
         id="path1012"
         style="fill:#000000;fill-opacity:1;fill-rule:nonzero;stroke:none;stroke-width:0.35277778"
         d="m -262.75435,141.64197 0.58455,0.46425 -1.28093,4.08658 -0.58879,-0.46849 0.36442,-1.06151 -1.25165,-0.99518 -0.95286,0.59337 -0.56691,-0.45085 z m -1.69227,1.72861 0.95743,0.76129 0.59937,-1.71732 -0.0127,-0.0106 z" />
      <path
         inkscape:connector-curvature="0"
         id="path1014"
         style="fill:#000000;fill-opacity:1;fill-rule:nonzero;stroke:none;stroke-width:0.35277778"
         d="m -260.05468,143.63982 1.69404,0.95497 c 0.62477,0.35207 0.87594,0.86607 0.55033,1.44674 -0.19756,0.35136 -0.52105,0.50341 -0.91475,0.46073 l -0.005,0.01 c 0.37253,0.33232 0.41486,0.7934 0.14993,1.26648 -0.30727,0.54645 -0.92569,0.7567 -1.82951,0.24765 l -1.6009,-0.90276 z m -1.06645,3.33022 1.07809,0.60819 c 0.37147,0.20849 0.69921,0.12947 0.89606,-0.2219 0.19191,-0.34114 0.0864,-0.65758 -0.28434,-0.86677 l -1.0795,-0.60784 z m 0.85725,-1.52753 0.99554,0.56162 c 0.29386,0.16475 0.60925,0.11818 0.78387,-0.19438 0.19791,-0.35101 0.0878,-0.57996 -0.24377,-0.76694 l -0.99589,-0.56162 z" />
      <path
         inkscape:connector-curvature="0"
         id="path1016"
         style="fill:#000000;fill-opacity:1;fill-rule:nonzero;stroke:none;stroke-width:0.35277778"
         d="m -253.24138,148.91543 c -0.38629,1.07386 -1.38465,1.72579 -2.51213,1.31974 -1.12783,-0.40675 -1.48061,-1.54481 -1.09396,-2.61902 0.38699,-1.07385 1.38324,-1.72614 2.51177,-1.31939 1.12784,0.4064 1.48026,1.54446 1.09432,2.61867 m -2.9471,-1.06186 c -0.25965,0.72143 -0.17851,1.55363 0.62865,1.84432 0.80715,0.29104 1.39982,-0.2988 1.65982,-1.01988 0.25858,-0.72178 0.17709,-1.55363 -0.62901,-1.84432 -0.8068,-0.29104 -1.40017,0.29845 -1.65946,1.01988" />
      <path
         inkscape:connector-curvature="0"
         id="path1018"
         style="fill:#000000;fill-opacity:1;fill-rule:nonzero;stroke:none;stroke-width:0.35277778"
         d="m -251.28449,147.34564 1.88207,0.33408 c 0.86078,0.15311 1.23155,0.62795 1.11267,1.2947 -0.13441,0.75494 -0.69392,0.85407 -0.82833,0.87594 l -0.002,0.0109 c 0.23177,0.0755 0.54786,0.31327 0.43674,0.93557 -0.0815,0.4572 -0.09,0.88794 0.0307,1.07456 l -0.74013,-0.13194 c -0.0741,-0.18909 -0.036,-0.40464 -10e-4,-0.59725 0.12841,-0.72144 0.0367,-1.06751 -0.59761,-1.1804 l -1.016,-0.18027 -0.28857,1.6196 -0.69074,-0.12241 z m 0.37007,1.91276 1.13136,0.20073 c 0.43674,0.078 0.71155,-0.0952 0.78563,-0.50835 0.09,-0.50094 -0.21872,-0.65828 -0.57714,-0.72178 l -1.12042,-0.19932 z" />
      <path
         inkscape:connector-curvature="0"
         id="path1020"
         style="fill:#000000;fill-opacity:1;fill-rule:nonzero;stroke:none;stroke-width:0.35277778"
         d="m -246.68874,148.02587 2.88395,0.0561 -0.0123,0.60395 -2.18193,-0.0423 -0.0205,1.04563 2.02,0.0395 -0.0116,0.57008 -2.01965,-0.0388 -0.0219,1.1684 2.22039,0.0434 -0.0113,0.6036 -2.92241,-0.0572 z" />
      <path
         inkscape:connector-curvature="0"
         id="path1022"
         style="fill:#000000;fill-opacity:1;fill-rule:nonzero;stroke:none;stroke-width:0.35277778"
         d="m -239.69337,147.61982 2.69593,-0.61242 0.1344,0.58843 -2.0133,0.45791 0.23354,1.01917 1.76601,-0.40181 0.127,0.55633 -1.76672,0.40146 0.39406,1.7279 -0.68333,0.15523 z" />
      <path
         inkscape:connector-curvature="0"
         id="path1024"
         style="fill:#000000;fill-opacity:1;fill-rule:nonzero;stroke:none;stroke-width:0.35277778"
         d="m -235.68003,146.5919 1.77659,-0.70803 c 0.81315,-0.3235 1.3783,-0.115 1.62948,0.51365 0.28398,0.71261 -0.139,1.09184 -0.24201,1.18145 l 0.004,0.0102 c 0.23671,-0.0579 0.63112,-0.0226 0.86501,0.5648 0.17215,0.4318 0.39123,0.80186 0.59231,0.89676 l -0.69779,0.27799 c -0.16299,-0.12136 -0.24413,-0.32421 -0.3168,-0.50624 -0.27058,-0.68157 -0.53234,-0.92675 -1.13136,-0.68792 l -0.95849,0.38206 0.60889,1.52823 -0.65087,0.26 z m 1.32468,1.43051 1.06821,-0.42545 c 0.41134,-0.16439 0.55457,-0.45579 0.39864,-0.84596 -0.18838,-0.47308 -0.53234,-0.44415 -0.87136,-0.30939 l -1.05763,0.42122 z" />
      <path
         inkscape:connector-curvature="0"
         id="path1026"
         style="fill:#000000;fill-opacity:1;fill-rule:nonzero;stroke:none;stroke-width:0.35277778"
         d="m -231.36962,144.74253 0.59796,-0.36548 1.21038,1.98649 c 0.27905,0.45826 0.63112,0.97085 1.40653,0.49813 0.77611,-0.47308 0.48119,-1.02059 0.20249,-1.4792 l -1.21073,-1.98614 0.59902,-0.36548 1.32962,2.18228 c 0.53234,0.87384 0.23706,1.6503 -0.60608,2.16394 -0.84243,0.514 -1.66758,0.42087 -2.20027,-0.45296 z" />
      <path
         inkscape:connector-curvature="0"
         id="path1028"
         style="fill:#000000;fill-opacity:1;fill-rule:nonzero;stroke:none;stroke-width:0.35277778"
         d="m -224.40102,141.25807 c -0.38947,-0.26776 -0.83432,-0.32561 -1.27388,0.0586 -0.64629,0.56445 -0.42086,1.36984 0.0829,1.94804 0.50377,0.57785 1.27035,0.91087 1.917,0.34643 0.46884,-0.40957 0.42157,-0.98496 0.0808,-1.4605 l 0.51612,-0.4505 c 0.58596,0.75777 0.5087,1.70251 -0.22261,2.34139 -0.90417,0.78952 -2.06939,0.54504 -2.81975,-0.31574 -0.7493,-0.86007 -0.83361,-2.04964 0.0706,-2.83986 0.68403,-0.58984 1.54728,-0.68333 2.17734,-0.0889 z" />
      <path
         inkscape:connector-curvature="0"
         id="path1030"
         style="fill:#000000;fill-opacity:1;fill-rule:nonzero;stroke:none;stroke-width:0.35277778"
         d="m -223.98058,139.07844 2.0761,-2.48603 0.46461,0.387 -0.81527,0.97613 2.60314,2.17135 -0.44873,0.53834 -2.60421,-2.1717 -0.8128,0.9719 z" />
      <path
         inkscape:connector-curvature="0"
         id="path1032"
         style="fill:#000000;fill-opacity:1;fill-rule:nonzero;stroke:none;stroke-width:0.35277778"
         d="m -221.18729,135.58294 0.35913,-0.60255 1.99743,1.1931 c 0.46073,0.27552 1.01106,0.56479 1.47708,-0.2152 0.46567,-0.7807 -0.0497,-1.12783 -0.51082,-1.40264 l -1.99813,-1.19345 0.35983,-0.60149 2.19392,1.30987 c 0.87877,0.52458 0.97967,1.34902 0.47378,2.19675 -0.50658,0.84807 -1.27952,1.15076 -2.15829,0.62547 z" />
      <path
         inkscape:connector-curvature="0"
         id="path1034"
         style="fill:#000000;fill-opacity:1;fill-rule:nonzero;stroke:none;stroke-width:0.35277778"
         d="m -216.15674,131.84483 c 0.57291,0.22613 0.96343,-0.10724 1.17051,-0.62865 0.22578,-0.57291 0.03,-0.89817 -0.25082,-1.00965 -0.28681,-0.11289 -0.46285,-0.002 -0.57997,0.1263 -0.20179,0.22154 -0.40428,0.53375 -0.74683,0.98883 -0.42298,0.56798 -0.88336,0.6029 -1.26824,0.4505 -0.744,-0.29457 -0.82091,-1.12077 -0.55456,-1.79317 0.30797,-0.77646 0.97719,-1.26506 1.75295,-0.95814 l -0.25753,0.65087 c -0.49177,-0.15769 -0.79692,0.096 -0.97437,0.54328 -0.11959,0.30268 -0.16122,0.72602 0.21343,0.87489 0.26,0.10266 0.4766,-0.0162 0.65405,-0.254 0.0385,-0.0505 0.5782,-0.78987 0.71191,-0.95991 0.34007,-0.43215 0.84878,-0.502 1.23401,-0.3496 0.83291,0.32984 0.87277,1.20156 0.57962,1.94169 -0.33655,0.84984 -1.01459,1.37759 -1.9424,1.02799 z" />
      <path
         inkscape:connector-curvature="0"
         id="path1036"
         style="fill:#000000;fill-opacity:1;fill-rule:nonzero;stroke:none;stroke-width:0.35277778"
         d="m -242.77037,116.4439 c 0,0.84772 0.14182,1.66193 0.40005,2.42287 1.31198,-1.35713 2.1209,-3.20428 2.1209,-5.24122 0,-0.84772 -0.14217,-1.66193 -0.40005,-2.42252 -1.31233,1.35714 -2.1209,3.20393 -2.1209,5.24087" />
      <path
         inkscape:connector-curvature="0"
         id="path1038"
         style="fill:#000000;fill-opacity:1;fill-rule:nonzero;stroke:none;stroke-width:0.35277778"
         d="m -246.61417,118.71783 c -0.49177,-0.81844 -1.11372,-1.50954 -1.82245,-2.06622 -0.45614,1.87819 -0.20249,3.92959 0.87136,5.71712 0.49178,0.81844 1.11372,1.50989 1.82245,2.06622 0.45615,-1.87819 0.2025,-3.92959 -0.87136,-5.71712" />
      <path
         inkscape:connector-curvature="0"
         id="path1040"
         style="fill:#000000;fill-opacity:1;fill-rule:nonzero;stroke:none;stroke-width:0.35277778"
         d="m -244.25772,126.22494 c 0.266,0.0286 0.53587,0.0438 0.80963,0.0438 2.78659,0 5.21864,-1.51271 6.52427,-3.76097 -0.26635,-0.0282 -0.53622,-0.0437 -0.80962,-0.0437 -2.7866,0 -5.21865,1.51271 -6.52428,3.76096" />
      <path
         inkscape:connector-curvature="0"
         id="path1042"
         style="fill:#000000;fill-opacity:1;fill-rule:nonzero;stroke:none;stroke-width:0.35277778"
         d="m -250.68582,133.44584 c 2.7058,2.13008 6.5158,2.60068 9.75713,0.89288 -2.70581,-2.13007 -6.51581,-2.60067 -9.75713,-0.89288" />
      <path
         inkscape:connector-curvature="0"
         id="path1044"
         style="fill:#000000;fill-opacity:1;fill-rule:nonzero;stroke:none;stroke-width:0.35277778"
         d="m -250.7586,123.39739 c -0.50765,-0.9592 -1.17087,-1.78223 -1.94098,-2.4578 -0.63359,2.10361 -0.47237,4.44782 0.63641,6.54297 0.50729,0.9592 1.17087,1.78223 1.94098,2.4578 0.63324,-2.10361 0.47237,-4.44782 -0.63641,-6.54297" />
    </g>
  </g>
</svg>
